<!DOCTYPE svg PUBLIC "-//W3C//DTD SVG 1.1//EN" "http://www.w3.org/Graphics/SVG/1.1/DTD/svg11.dtd">
<!-- Uploaded to: SVG Repo, www.svgrepo.com, Transformed by: SVG Repo Mixer Tools -->
<svg width="800px" height="800px" viewBox="0 0 24 24" xmlns="http://www.w3.org/2000/svg" id="left-sign-1" class="icon glyph" fill="#000000">
<g id="SVGRepo_bgCarrier" stroke-width="0"/>
<g id="SVGRepo_tracerCarrier" stroke-linecap="round" stroke-linejoin="round"/>
<g id="SVGRepo_iconCarrier">
<path d="M21,9H10V7a1,1,0,0,0-1.64-.77L3.28,10.46a2,2,0,0,0,0,3.08l5.08,4.23A1,1,0,0,0,9,18a1,1,0,0,0,.42-.09A1,1,0,0,0,10,17V15H21a1,1,0,0,0,1-1V10A1,1,0,0,0,21,9Z" style="fill:#FFFF00"/>
</g>
</svg>